{
	"asset":{
		"generator":"Khronos glTF Blender I/O v3.5.30",
		"version":"2.0"
	},
	"extensionsUsed":[
		"KHR_materials_specular",
		"KHR_materials_ior"
	],
	"scene":0,
	"scenes":[
		{
			"name":"Scene",
			"nodes":[
				0,
				1
			]
		}
	],
	"nodes":[
		{
			"mesh":0,
			"name":"donut",
			"translation":[
				0,
				0.019472850486636162,
				0
			]
		},
		{
			"mesh":1,
			"name":"icing",
			"translation":[
				0,
				0.019472850486636162,
				0
			]
		}
	],
	"materials":[
		{
			"doubleSided":true,
			"extensions":{
				"KHR_materials_specular":{
					"specularColorTexture":{
						"index":0
					},
					"specularColorFactor":[
						1.1906220678889927,
						1.1855664684824807,
						1.1851093120516627
					]
				},
				"KHR_materials_ior":{
					"ior":1.4500000476837158
				}
			},
			"name":"Material.002",
			"pbrMetallicRoughness":{
				"baseColorTexture":{
					"index":1
				},
				"metallicFactor":0,
				"roughnessFactor":0.7244094610214233
			}
		},
		{
			"doubleSided":true,
			"name":"Material.001",
			"pbrMetallicRoughness":{
				"baseColorTexture":{
					"index":2
				},
				"metallicFactor":0,
				"roughnessFactor":0.20078739523887634
			}
		}
	],
	"meshes":[
		{
			"name":"Torus",
			"primitives":[
				{
					"attributes":{
						"POSITION":0,
						"TEXCOORD_0":1,
						"NORMAL":2
					},
					"indices":3,
					"material":0
				}
			]
		},
		{
			"name":"Torus.001",
			"primitives":[
				{
					"attributes":{
						"POSITION":4,
						"TEXCOORD_0":5,
						"NORMAL":6
					},
					"indices":7,
					"material":1
				}
			]
		}
	],
	"textures":[
		{
			"sampler":0,
			"source":0
		},
		{
			"sampler":0,
			"source":1
		},
		{
			"sampler":0,
			"source":2
		}
	],
	"images":[
		{
			"mimeType":"image/png",
			"name":"Image",
			"uri":"Image.png"
		},
		{
			"mimeType":"image/png",
			"name":"doNut",
			"uri":"../../doNut.png"
		},
		{
			"mimeType":"image/png",
			"name":"icing",
			"uri":"../../icing.png"
		}
	],
	"accessors":[
		{
			"bufferView":0,
			"componentType":5126,
			"count":738,
			"max":[
				0.0487130731344223,
				0.020584825426340103,
				0.04583480954170227
			],
			"min":[
				-0.04683660715818405,
				-0.01984318159520626,
				-0.04845878854393959
			],
			"type":"VEC3"
		},
		{
			"bufferView":1,
			"componentType":5126,
			"count":738,
			"type":"VEC2"
		},
		{
			"bufferView":2,
			"componentType":5126,
			"count":738,
			"type":"VEC3"
		},
		{
			"bufferView":3,
			"componentType":5123,
			"count":4080,
			"type":"SCALAR"
		},
		{
			"bufferView":4,
			"componentType":5126,
			"count":22792,
			"max":[
				0.04888048768043518,
				0.02356688119471073,
				0.047578416764736176
			],
			"min":[
				-0.04824330285191536,
				-0.015368670225143433,
				-0.04866592958569527
			],
			"type":"VEC3"
		},
		{
			"bufferView":5,
			"componentType":5126,
			"count":22792,
			"type":"VEC2"
		},
		{
			"bufferView":6,
			"componentType":5126,
			"count":22792,
			"type":"VEC3"
		},
		{
			"bufferView":7,
			"componentType":5123,
			"count":135936,
			"type":"SCALAR"
		}
	],
	"bufferViews":[
		{
			"buffer":0,
			"byteLength":8856,
			"byteOffset":0,
			"target":34962
		},
		{
			"buffer":0,
			"byteLength":5904,
			"byteOffset":8856,
			"target":34962
		},
		{
			"buffer":0,
			"byteLength":8856,
			"byteOffset":14760,
			"target":34962
		},
		{
			"buffer":0,
			"byteLength":8160,
			"byteOffset":23616,
			"target":34963
		},
		{
			"buffer":0,
			"byteLength":273504,
			"byteOffset":31776,
			"target":34962
		},
		{
			"buffer":0,
			"byteLength":182336,
			"byteOffset":305280,
			"target":34962
		},
		{
			"buffer":0,
			"byteLength":273504,
			"byteOffset":487616,
			"target":34962
		},
		{
			"buffer":0,
			"byteLength":271872,
			"byteOffset":761120,
			"target":34963
		}
	],
	"samplers":[
		{
			"magFilter":9729,
			"minFilter":9987
		}
	],
	"buffers":[
		{
			"byteLength":1032992,
			"uri":"doNut.bin"
		}
	]
}
